<svg width="185" height="51" viewBox="0 0 185 51" fill="none" xmlns="http://www.w3.org/2000/svg">
<path d="M21.9929 3.98811L23.4479 0.975484H24.7762L25.3246 13.5109H23.9117C22.984 9.98531 21.8171 7.38685 20.4115 5.71553C18.6681 3.62297 16.5877 2.57629 14.17 2.57629C11.5552 2.57629 9.4255 3.74224 7.78087 6.07386C6.13606 8.40548 5.31385 12.3521 5.31385 17.9141C5.31385 22.5913 6.25535 26.1586 8.13935 28.6168C9.74184 30.6955 11.991 31.7348 14.8869 31.7348C17.4172 31.7348 19.5398 30.9232 21.2549 29.3012C22.9697 27.6789 24.0874 25.2318 24.6076 21.9593H26.1048C25.6687 25.667 24.3968 28.5185 22.2882 30.513C20.1795 32.5072 17.5226 33.5046 14.3176 33.5046C11.7167 33.5046 9.33069 32.8515 7.15881 31.5452C4.98683 30.2388 3.25069 28.3604 1.95042 25.9092C0.650036 23.4584 0 20.7724 0 17.851C0 14.7469 0.671148 11.8323 2.01385 9.10745C3.35616 6.3829 5.07466 4.33517 7.16936 2.96608C9.26376 1.59646 11.5199 0.912048 13.938 0.912048C15.2876 0.912048 16.5949 1.14377 17.8601 1.60721C19.1251 2.07065 20.5026 2.86437 21.9929 3.98811" fill="#8E93A5"/>
<path d="M36.2061 1.20718V29.8175C36.2061 30.211 36.3252 30.513 36.5645 30.7235C36.9155 31.0045 37.3445 31.145 37.8506 31.145H39.9381V32.7251H28.7414V31.145H30.7235C31.3699 31.145 31.8516 30.9903 32.1678 30.6815C32.4842 30.3725 32.6423 29.9371 32.6423 29.3751V5.35744C32.6423 4.6552 32.4527 4.14248 32.073 3.81954C31.5528 3.36999 30.9135 3.14535 30.1542 3.14535H28.3828V1.56525L36.2061 1.20718" fill="#8E93A5"/>
<path d="M46.7279 21.4956H55.2887C55.7948 21.4956 56.1883 21.3236 56.4698 20.9792C56.7508 20.6355 56.8914 20.0489 56.8914 19.2203C56.8914 17.6753 56.4098 16.3621 55.4469 15.2805C54.4838 14.199 53.3489 13.6582 52.0416 13.6582C50.5795 13.6582 49.3389 14.3115 48.3199 15.6176C47.3007 16.9241 46.7702 18.8832 46.7279 21.4956V21.4956ZM60.8768 22.9915H46.7279C46.798 25.9974 47.3605 28.1179 48.4146 29.3541C49.6238 30.7447 51.1627 31.4399 53.0328 31.4399C55.7877 31.4399 58.0017 29.8737 59.675 26.7417L61.0455 27.3315C58.9929 31.3204 56.027 33.3149 52.1471 33.3149C49.5041 33.3149 47.2797 32.36 45.4731 30.4498C43.6668 28.5395 42.7635 26.0956 42.7635 23.1179C42.7635 19.9155 43.6527 17.3275 45.4311 15.3539C47.2091 13.3809 49.3987 12.394 51.9994 12.394C53.9111 12.394 55.5629 12.8858 56.9547 13.869C58.3464 14.852 59.3935 16.2638 60.0966 18.1037C60.5882 19.3959 60.8485 21.0251 60.8768 22.9915" fill="#8E93A5"/>
<path d="M77.0294 22.2329C73.4588 22.7247 70.9284 23.5252 69.4385 24.6348C68.3277 25.4776 67.7729 26.6714 67.7729 28.2165C67.7729 29.298 68.0609 30.1437 68.6373 30.7547C69.2134 31.3658 69.9659 31.6716 70.8935 31.6716C72.5521 31.6716 73.9896 31.0433 75.2056 29.7856C76.4216 28.5289 77.0294 26.9524 77.0294 25.0563V22.2329ZM83.9458 30.5549L84.705 31.7348C83.6787 32.7883 82.5401 33.3149 81.2892 33.3149C80.333 33.3149 79.5283 33.0548 78.8745 32.5356C78.221 32.0158 77.648 31.1028 77.1561 29.7966C75.8205 31.2011 74.647 32.1387 73.6349 32.6087C72.6224 33.0792 71.4064 33.3149 69.9868 33.3149C67.9625 33.3149 66.4233 32.8792 65.3689 32.0087C64.3145 31.1379 63.7875 30.0212 63.7875 28.659C63.7875 26.6083 64.993 24.9054 67.4037 23.5493C69.8145 22.1944 73.0233 21.2919 77.0294 20.8426V17.851C77.0294 16.7836 76.6007 15.8703 75.7434 15.112C74.8857 14.3534 73.7962 13.9744 72.475 13.9744C71.2519 13.9744 70.1978 14.2273 69.3121 14.733C68.6793 15.112 68.3632 15.4842 68.3632 15.8494C68.3632 16.0601 68.5321 16.3901 68.8692 16.8394C69.2769 17.4014 69.4808 17.9 69.4808 18.3354C69.4808 18.9674 69.2769 19.4832 68.8692 19.8838C68.4613 20.284 67.9274 20.4846 67.2668 20.4846C66.5637 20.4846 65.9768 20.2458 65.5059 19.7679C65.035 19.2906 64.7996 18.6795 64.7996 17.9351C64.7996 16.5448 65.5833 15.2735 67.1508 14.1217C68.7179 12.9702 70.7739 12.394 73.3185 12.394C75.666 12.394 77.4581 12.8999 78.6954 13.9112C79.9323 14.9366 80.551 16.1794 80.551 17.6402V28.4273C80.551 29.3822 80.7055 30.0844 81.0148 30.534C81.3241 30.9974 81.7247 31.2292 82.2169 31.2292C82.7652 31.2292 83.3413 31.0045 83.9458 30.5549" fill="#8E93A5"/>
<path d="M85.9078 12.9843L93.0139 12.626V20.6109C93.7729 17.9844 94.6866 15.9969 95.7549 14.6486C96.8235 13.3002 98.1447 12.626 99.7193 12.626C100.788 12.626 101.641 12.9521 102.281 13.6053C102.921 14.2585 103.241 15.133 103.241 16.2287C103.241 17.1136 103.027 17.8017 102.598 18.2932C102.169 18.7849 101.631 19.0305 100.984 19.0305C100.352 19.0305 99.8421 18.82 99.4559 18.3988C99.069 17.9773 98.8759 17.4085 98.8759 16.6924C98.8759 16.2287 98.9881 15.7933 99.2132 15.3859C99.4239 15.0208 99.5296 14.803 99.5296 14.733C99.5296 14.522 99.3958 14.4168 99.1288 14.4168C98.5526 14.4168 97.8989 14.7537 97.1677 15.4281C96.1555 16.3692 95.3753 17.6614 94.8273 19.3045C93.9838 21.861 93.5619 23.9045 93.5619 25.4353V29.6702C93.5619 30.1476 93.7309 30.513 94.068 30.7657C94.4054 31.0187 94.9818 31.145 95.7972 31.145H98.3066V32.7251H86.0343V31.145H87.9954C88.656 31.145 89.155 31.015 89.4923 30.7547C89.83 30.4952 89.9984 30.183 89.9984 29.8176V17.2399C89.9984 16.2848 89.7946 15.5857 89.3869 15.1432C88.9794 14.7007 88.396 14.48 87.637 14.48H85.9078V12.9843" fill="#8E93A5"/>
<path d="M120.848 2.53435C118.107 2.53435 115.885 3.67225 114.184 5.94725C112.483 8.22251 111.633 11.9306 111.633 17.0714C111.633 22.6474 112.505 26.503 114.248 28.6378C115.991 30.7728 118.149 31.8401 120.721 31.8401C122.52 31.8401 124.102 31.3555 125.465 30.3863C126.829 29.4173 127.915 27.8792 128.724 25.7726C129.532 23.6657 129.936 20.8987 129.936 17.4717C129.936 13.7356 129.556 10.8176 128.797 8.71767C128.038 6.61803 126.956 5.06231 125.55 4.05128C124.144 3.04 122.577 2.53435 120.848 2.53435V2.53435ZM120.51 0.912048C123.139 0.912048 125.603 1.6038 127.901 2.98705C130.2 4.37082 131.999 6.30191 133.299 8.78058C134.599 11.26 135.249 14.0517 135.249 17.1558C135.249 20.2596 134.596 23.0618 133.288 25.5618C131.981 28.0618 130.186 30.0108 127.901 31.4079C125.616 32.8056 123.195 33.5046 120.637 33.5046C118.135 33.5046 115.787 32.8197 113.594 31.4501C111.401 30.0807 109.641 28.1213 108.312 25.5721C106.984 23.0227 106.319 20.1965 106.319 17.0924C106.319 14.0305 106.963 11.2669 108.249 8.80181C109.535 6.33677 111.296 4.40594 113.531 3.00802C115.766 1.61062 118.092 0.912048 120.51 0.912048" fill="#C4161D"/>
<path d="M138.118 12.9843L144.677 12.5838C144.943 13.8197 145.141 15.2667 145.267 16.9241C146.153 15.4913 147.196 14.4168 148.398 13.7004C149.6 12.9843 150.96 12.626 152.478 12.626C153.786 12.626 154.882 12.8821 155.768 13.3948C156.654 13.9075 157.362 14.7188 157.898 15.8284C158.432 16.938 158.699 18.181 158.699 19.5574V29.1646C158.699 29.8807 158.86 30.39 159.183 30.6915C159.507 30.994 160.048 31.145 160.807 31.145H162.199V32.7251H151.782V31.145H152.774C153.701 31.145 154.347 30.9974 154.713 30.7026C155.079 30.4077 155.261 29.9651 155.261 29.3751V20.9268C155.261 19.0869 154.98 17.7246 154.418 16.8394C153.63 15.5757 152.436 14.9437 150.833 14.9437C149.244 14.9437 147.92 15.5825 146.859 16.8606C145.797 18.1388 145.267 19.8033 145.267 21.8539V29.1646C145.267 29.8807 145.432 30.39 145.762 30.6915C146.092 30.994 146.637 31.145 147.396 31.145H148.767V32.7251H138.309V31.145H139.679C140.367 31.145 140.891 31.0045 141.25 30.7236C141.608 30.4428 141.787 30.0915 141.787 29.6702V16.9241C141.787 16.0811 141.559 15.4423 141.102 15.0066C140.645 14.5712 139.988 14.3534 139.131 14.3534H138.118V12.9843" fill="#C4161D"/>
<path d="M168.019 21.4956H176.58C177.086 21.4956 177.479 21.3236 177.762 20.9792C178.042 20.6355 178.183 20.0489 178.183 19.2203C178.183 17.6753 177.701 16.3621 176.738 15.2805C175.775 14.199 174.64 13.6582 173.333 13.6582C171.871 13.6582 170.63 14.3115 169.611 15.6176C168.592 16.9241 168.062 18.8832 168.019 21.4956ZM182.168 22.9915H168.019C168.09 25.9974 168.652 28.1179 169.706 29.3541C170.915 30.7447 172.454 31.4399 174.324 31.4399C177.079 31.4399 179.293 29.8737 180.966 26.7417L182.337 27.3315C180.284 31.3204 177.318 33.3149 173.438 33.3149C170.795 33.3149 168.571 32.36 166.764 30.4498C164.958 28.5395 164.055 26.0956 164.055 23.1179C164.055 19.9155 164.944 17.3275 166.723 15.3539C168.5 13.3809 170.69 12.394 173.291 12.394C175.202 12.394 176.854 12.8858 178.246 13.869C179.638 14.852 180.685 16.2638 181.388 18.1037C181.88 19.3959 182.139 21.0251 182.168 22.9915" fill="#C4161D"/>
<path d="M131.53 45.3819L131.063 43.7929C130.94 43.348 130.807 42.7816 130.696 42.348H130.662C130.563 42.7926 130.44 43.3593 130.329 43.7929L129.873 45.3819H131.53ZM129.628 46.6488L129.105 48.5712H127.348L129.639 41.0811H131.853L134.188 48.5712H132.364L131.786 46.6488H129.628" fill="#8E93A5"/>
<path d="M138.728 45.4485C138.728 45.3484 138.728 45.2375 138.706 45.1374C138.605 44.6818 138.238 44.315 137.716 44.315C136.937 44.315 136.548 45.0039 136.548 45.8597C136.548 46.7706 137.004 47.349 137.705 47.349C138.194 47.349 138.594 47.0155 138.694 46.5374C138.717 46.4265 138.728 46.2931 138.728 46.1598V45.4485ZM140.419 40.6812V46.9486C140.419 47.5711 140.44 48.2044 140.463 48.5712H138.961L138.894 47.7822H138.862C138.528 48.3822 137.86 48.6934 137.159 48.6934C135.869 48.6934 134.835 47.5932 134.835 45.9043C134.824 44.0818 135.97 43.0149 137.271 43.0149C137.949 43.0149 138.461 43.2595 138.706 43.6259H138.728V40.6812H140.419" fill="#8E93A5"/>
<path d="M143.189 43.137L143.922 45.6595C144.056 46.1153 144.145 46.5486 144.234 46.9822H144.267C144.357 46.5374 144.445 46.1264 144.568 45.6595L145.268 43.137H147.048L145.024 48.5712H143.333L141.353 43.137H143.189Z" fill="#8E93A5"/>
<path d="M150.698 46.0039C149.809 46.0039 149.119 46.2155 149.119 46.8598C149.119 47.2934 149.408 47.5044 149.786 47.5044C150.198 47.5044 150.554 47.2265 150.665 46.882C150.687 46.7932 150.698 46.693 150.698 46.593V46.0039ZM152.333 47.2597C152.333 47.7709 152.355 48.2711 152.422 48.5712H150.898L150.799 48.0268H150.765C150.409 48.46 149.853 48.6934 149.208 48.6934C148.107 48.6934 147.451 47.8934 147.451 47.0265C147.451 45.6152 148.719 44.9483 150.643 44.9483V44.8818C150.643 44.5929 150.487 44.1816 149.653 44.1816C149.097 44.1816 148.507 44.3706 148.151 44.5816L147.84 43.5037C148.218 43.2927 148.963 43.0149 149.953 43.0149C151.766 43.0149 152.333 44.0818 152.333 45.3593V47.2597" fill="#8E93A5"/>
<path d="M153.846 44.8705C153.846 44.1929 153.824 43.6259 153.802 43.137H155.27L155.348 43.8927H155.382C155.604 43.537 156.149 43.0149 157.06 43.0149C158.173 43.0149 159.007 43.7593 159.007 45.3593V48.5712H157.317V45.5599C157.317 44.8598 157.072 44.3819 156.46 44.3819C155.993 44.3819 155.715 44.704 155.593 45.0152C155.548 45.1261 155.537 45.2817 155.537 45.4375V48.5712H153.846V44.8705" fill="#8E93A5"/>
<path d="M162.357 41.6591V43.137H163.57V44.3819H162.357V46.3596C162.357 47.0155 162.524 47.3156 163.024 47.3156C163.258 47.3156 163.369 47.3041 163.525 47.271L163.537 48.5487C163.325 48.6268 162.913 48.6934 162.446 48.6934C161.901 48.6934 161.445 48.5044 161.167 48.2268C160.856 47.9043 160.7 47.3822 160.7 46.6155V44.3819H159.978V43.137H160.7V42.1148L162.357 41.6591Z" fill="#8E93A5"/>
<path d="M167.607 46.0039C166.717 46.0039 166.028 46.2155 166.028 46.8598C166.028 47.2934 166.317 47.5044 166.695 47.5044C167.106 47.5044 167.462 47.2265 167.574 46.882C167.596 46.7932 167.607 46.693 167.607 46.593V46.0039ZM169.242 47.2597C169.242 47.7709 169.265 48.2711 169.331 48.5712H167.807L167.707 48.0268H167.674C167.318 48.46 166.762 48.6934 166.117 48.6934C165.016 48.6934 164.36 47.8934 164.36 47.0265C164.36 45.6152 165.627 44.9483 167.551 44.9483V44.8818C167.551 44.5929 167.396 44.1816 166.562 44.1816C166.005 44.1816 165.416 44.3706 165.06 44.5816L164.749 43.5037C165.127 43.2927 165.872 43.0149 166.862 43.0149C168.675 43.0149 169.242 44.0818 169.242 45.3593V47.2597" fill="#8E93A5"/>
<path d="M174.214 45.3484C174.214 45.2484 174.203 45.1374 174.181 45.0374C174.059 44.5929 173.736 44.2928 173.269 44.2928C172.646 44.2928 172.157 44.8485 172.157 45.8375C172.157 46.6488 172.557 47.2823 173.258 47.2823C173.703 47.2823 174.047 46.9932 174.159 46.6042C174.203 46.4708 174.214 46.293 174.214 46.1486V45.3484ZM175.905 47.7822C175.905 48.8268 175.694 49.6824 175.071 50.227C174.481 50.738 173.669 50.8939 172.869 50.8939C172.146 50.8939 171.4 50.7492 170.911 50.4826L171.245 49.1935C171.589 49.3935 172.179 49.6048 172.824 49.6048C173.625 49.6048 174.237 49.1825 174.237 48.1712V47.8267H174.214C173.892 48.2711 173.369 48.5269 172.746 48.5269C171.4 48.5269 170.444 47.4375 170.444 45.8817C170.444 44.1263 171.567 43.0149 172.913 43.0149C173.658 43.0149 174.125 43.3371 174.403 43.7817H174.426L174.481 43.137H175.949C175.927 43.4927 175.905 43.9483 175.905 44.7593V47.7822" fill="#8E93A5"/>
<path d="M180.721 45.2259C180.721 44.8262 180.543 44.1263 179.776 44.1263C179.053 44.1263 178.764 44.7816 178.719 45.2259H180.721ZM178.731 46.3819C178.786 47.0931 179.476 47.4265 180.265 47.4265C180.844 47.4265 181.311 47.349 181.767 47.1932L181.989 48.3377C181.433 48.5712 180.755 48.6823 180.021 48.6823C178.174 48.6823 177.118 47.6155 177.118 45.9043C177.118 44.5261 177.985 43.0036 179.865 43.0036C181.623 43.0036 182.29 44.3706 182.29 45.7151C182.29 46.0039 182.256 46.2598 182.234 46.3932L178.731 46.3819" fill="#8E93A5"/>
<path d="M183.482 41.6333H183.623C183.788 41.6333 183.922 41.5782 183.922 41.4445C183.922 41.3266 183.836 41.248 183.647 41.248C183.568 41.248 183.513 41.256 183.482 41.2639V41.6333ZM183.474 42.364H183.175V41.0752C183.293 41.0516 183.458 41.0359 183.671 41.0359C183.914 41.0359 184.025 41.0752 184.119 41.1302C184.19 41.1853 184.245 41.2873 184.245 41.413C184.245 41.5546 184.135 41.6647 183.978 41.7119V41.7276C184.103 41.7746 184.174 41.8692 184.213 42.0419C184.252 42.2382 184.276 42.3171 184.308 42.364H183.985C183.946 42.3171 183.922 42.1989 183.883 42.0498C183.859 41.9085 183.781 41.8453 183.615 41.8453H183.474V42.364ZM182.679 41.6882C182.679 42.262 183.104 42.7179 183.686 42.7179C184.252 42.7179 184.67 42.262 184.67 41.6959C184.67 41.1221 184.252 40.6587 183.678 40.6587C183.104 40.6587 182.679 41.1221 182.679 41.6882V41.6882ZM185 41.6882C185 42.4191 184.426 42.9928 183.678 42.9928C182.939 42.9928 182.349 42.4191 182.349 41.6882C182.349 40.9732 182.939 40.3994 183.678 40.3994C184.426 40.3994 185 40.9732 185 41.6882Z" fill="#8E93A5"/>
</svg>
